<?xml version="1.0" standalone="no"?>
<!DOCTYPE svg PUBLIC "-//W3C//DTD SVG 20010904//EN"
 "http://www.w3.org/TR/2001/REC-SVG-20010904/DTD/svg10.dtd">
<svg version="1.0" xmlns="http://www.w3.org/2000/svg"
 width="1280.000000pt" height="1280.000000pt" viewBox="0 0 1280.000000 1280.000000"
 preserveAspectRatio="xMidYMid meet">
<metadata>
Created by potrace 1.14, written by Peter Selinger 2001-2017
</metadata>
<g transform="translate(0.000000,1280.000000) scale(0.100000,-0.100000)"
fill="#000000" stroke="none">
<path d="M6019 10256 c-2 -2 -71 -7 -154 -10 -82 -4 -166 -8 -185 -10 -19 -2
-78 -7 -130 -10 -52 -4 -111 -8 -130 -11 -19 -2 -66 -6 -105 -10 -38 -3 -83
-8 -100 -10 -16 -2 -57 -6 -90 -9 -33 -3 -69 -8 -81 -10 -11 -2 -45 -7 -75
-10 -30 -3 -65 -8 -79 -10 -14 -3 -47 -7 -75 -11 -91 -11 -467 -74 -620 -104
-208 -42 -209 -42 -220 -45 -9 -3 -69 -15 -105 -21 -36 -7 -285 -68 -390 -96
-63 -17 -125 -33 -137 -35 -106 -21 -842 -259 -938 -304 -11 -5 -45 -19 -75
-30 -30 -12 -68 -27 -85 -34 -16 -8 -64 -28 -105 -46 -69 -30 -422 -208 -515
-260 -22 -12 -65 -36 -95 -53 -62 -34 -292 -178 -300 -186 -3 -4 -41 -33 -85
-65 -215 -161 -403 -388 -505 -611 -25 -54 -76 -197 -85 -235 -20 -87 -24
-111 -30 -150 -3 -25 -8 -52 -10 -60 -4 -17 -14 -138 -20 -250 -28 -540 -25
-1087 10 -1425 3 -27 7 -75 10 -105 7 -67 14 -127 20 -160 2 -14 7 -45 10 -70
27 -208 111 -500 182 -630 77 -141 257 -400 379 -547 218 -262 629 -600 1020
-840 496 -305 1000 -559 1454 -731 182 -69 584 -200 665 -217 11 -2 74 -18
140 -36 66 -17 136 -35 155 -39 75 -17 427 -90 455 -95 146 -25 224 -38 320
-51 28 -3 59 -8 70 -10 30 -6 334 -39 449 -50 304 -27 842 -26 1146 1 93 8
257 25 290 30 14 2 79 11 145 20 169 22 456 69 495 80 8 2 29 7 45 10 85 14
260 53 320 69 28 8 66 17 85 21 159 31 883 259 935 295 6 3 33 15 60 25 55 19
83 31 165 68 30 13 84 37 120 52 98 43 506 251 665 340 334 187 601 360 833
540 42 32 82 62 87 67 6 4 64 54 130 111 245 214 413 409 610 712 89 136 141
236 179 344 35 98 81 281 102 406 9 55 17 107 19 115 1 8 6 44 10 80 4 36 9
72 10 81 2 8 6 55 10 104 4 49 9 105 10 125 28 338 23 1008 -10 1450 -31 415
-184 744 -472 1020 -55 52 -126 116 -159 141 -55 43 -301 209 -309 209 -2 0
-30 15 -62 34 -327 189 -681 357 -1018 481 -280 103 -776 256 -975 300 -8 2
-51 13 -95 24 -91 23 -253 61 -275 66 -8 2 -85 17 -170 35 -232 47 -280 57
-330 64 -40 6 -73 12 -145 26 -27 5 -70 12 -95 15 -25 3 -52 8 -60 10 -8 2
-40 7 -70 10 -30 3 -62 8 -70 10 -8 2 -40 7 -70 10 -30 3 -62 7 -70 10 -8 2
-46 6 -83 10 -37 3 -76 8 -85 9 -9 2 -51 7 -92 11 -41 4 -86 8 -100 10 -14 1
-64 6 -110 10 -47 4 -92 8 -100 10 -8 2 -71 6 -140 10 -69 3 -143 9 -165 11
-47 5 -951 14 -956 10z"/>
</g>
</svg>
